<svg xmlns="http://www.w3.org/2000/svg" viewBox="0 0 1200 750" role="img" aria-label="Commerce dashboard preview">
  <rect width="1200" height="750" fill="#f7f9fc"/>
  <rect x="70" y="70" width="1060" height="610" rx="34" fill="#ffffff" stroke="#dfe7f1" stroke-width="3"/>
  <rect x="110" y="115" width="210" height="520" rx="24" fill="#07111f"/>
  <rect x="150" y="165" width="120" height="24" rx="12" fill="#22d3ee"/>
  <rect x="150" y="235" width="120" height="18" rx="9" fill="#94a3b8"/>
  <rect x="150" y="285" width="135" height="18" rx="9" fill="#94a3b8"/>
  <rect x="150" y="335" width="105" height="18" rx="9" fill="#94a3b8"/>
  <rect x="365" y="120" width="250" height="120" rx="22" fill="#e0f7fb"/>
  <rect x="650" y="120" width="200" height="120" rx="22" fill="#fff3d8"/>
  <rect x="885" y="120" width="200" height="120" rx="22" fill="#ffe4ea"/>
  <rect x="380" y="295" width="690" height="280" rx="26" fill="#f1f5f9"/>
  <path d="M430 520 520 430l90 52 105-120 120 95 185-150" fill="none" stroke="#0891b2" stroke-width="18" stroke-linecap="round" stroke-linejoin="round"/>
  <rect x="430" y="605" width="560" height="24" rx="12" fill="#cbd5e1"/>
</svg>
