<svg xmlns="http://www.w3.org/2000/svg" viewBox="0 0 1200 750" role="img" aria-label="Design system preview">
  <rect width="1200" height="750" fill="#f8fafc"/>
  <rect x="90" y="80" width="1020" height="590" rx="34" fill="#ffffff" stroke="#dfe7f1" stroke-width="3"/>
  <rect x="145" y="140" width="300" height="80" rx="22" fill="#07111f"/>
  <rect x="475" y="140" width="190" height="80" rx="22" fill="#22d3ee"/>
  <rect x="695" y="140" width="190" height="80" rx="22" fill="#f6c76f"/>
  <rect x="915" y="140" width="140" height="80" rx="22" fill="#fb7185"/>
  <rect x="145" y="285" width="280" height="260" rx="28" fill="#eef4fb"/>
  <rect x="460" y="285" width="280" height="260" rx="28" fill="#eef4fb"/>
  <rect x="775" y="285" width="280" height="260" rx="28" fill="#eef4fb"/>
  <circle cx="285" cy="370" r="48" fill="#22d3ee"/>
  <rect x="195" y="455" width="180" height="22" rx="11" fill="#0f172a"/>
  <rect x="220" y="500" width="130" height="18" rx="9" fill="#64748b"/>
  <rect x="515" y="350" width="170" height="44" rx="12" fill="#0f172a"/>
  <rect x="520" y="445" width="160" height="22" rx="11" fill="#64748b"/>
  <rect x="835" y="345" width="160" height="160" rx="24" fill="#ffffff" stroke="#cbd5e1" stroke-width="3"/>
  <path d="M865 425h100m-50-50v100" stroke="#fb7185" stroke-width="16" stroke-linecap="round"/>
</svg>
