<svg xmlns="http://www.w3.org/2000/svg" viewBox="0 0 1200 750" role="img" aria-label="Portfolio platform preview">
  <rect width="1200" height="750" fill="#07111f"/>
  <rect x="80" y="70" width="1040" height="610" rx="36" fill="#0d1b2f" stroke="#20324d" stroke-width="3"/>
  <rect x="125" y="125" width="950" height="80" rx="18" fill="#13243a"/>
  <circle cx="165" cy="165" r="14" fill="#fb7185"/>
  <circle cx="210" cy="165" r="14" fill="#f6c76f"/>
  <circle cx="255" cy="165" r="14" fill="#22d3ee"/>
  <rect x="150" y="260" width="395" height="42" rx="12" fill="#f8fafc"/>
  <rect x="150" y="325" width="300" height="26" rx="13" fill="#7dd3fc"/>
  <rect x="150" y="385" width="420" height="22" rx="11" fill="#64748b"/>
  <rect x="150" y="425" width="350" height="22" rx="11" fill="#64748b"/>
  <rect x="150" y="510" width="160" height="54" rx="14" fill="#22d3ee"/>
  <rect x="330" y="510" width="170" height="54" rx="14" fill="#1e293b" stroke="#334155" stroke-width="2"/>
  <rect x="680" y="255" width="295" height="320" rx="28" fill="#111f34" stroke="#25405f" stroke-width="3"/>
  <rect x="725" y="305" width="205" height="34" rx="12" fill="#f8fafc"/>
  <rect x="725" y="365" width="160" height="20" rx="10" fill="#22d3ee"/>
  <rect x="725" y="420" width="205" height="18" rx="9" fill="#64748b"/>
  <rect x="725" y="455" width="185" height="18" rx="9" fill="#64748b"/>
  <path d="M700 575c110-118 181-118 276 0" fill="none" stroke="#fb7185" stroke-width="18" stroke-linecap="round"/>
</svg>
